<svg width="87" height="49" viewBox="0 0 87 49" fill="none" xmlns="http://www.w3.org/2000/svg">
<path d="M14.97 24.13C15.21 23.39 15.46 22.51 15.72 21.49C16 20.45 16.29 19.23 16.59 17.83L18.6 8.56H22.83L20.85 17.92C20.37 20.22 19.92 22.06 19.5 23.44C19.08 24.82 18.62 25.97 18.12 26.89C17.32 28.41 16.31 29.51 15.09 30.19C13.87 30.87 12.32 31.21 10.44 31.21C8.44 31.21 6.97 30.83 6.03 30.07C5.11 29.31 4.65 28.1 4.65 26.44C4.65 25.72 4.72 24.87 4.86 23.89C5.02 22.91 5.27 21.71 5.61 20.29C5.79 19.51 6.06 18.41 6.42 16.99C6.78 15.57 7.01 14.64 7.11 14.2L8.1 10.24C6.42 10.68 5.11 11.51 4.17 12.73C3.25 13.93 2.79 15.4 2.79 17.14C2.79 17.54 2.81 17.89 2.85 18.19C2.91 18.47 3 18.73 3.12 18.97C3.16 19.05 3.18 19.11 3.18 19.15C3.2 19.17 3.21 19.19 3.21 19.21C2.13 19.21 1.32 18.98 0.78 18.52C0.26 18.06 0 17.37 0 16.45C0 15.35 0.36 14.28 1.08 13.24C1.8 12.18 2.81 11.26 4.11 10.48C5.17 9.84 6.32 9.35 7.56 9.01C8.82 8.67 10.08 8.5 11.34 8.5C11.6 8.5 11.82 8.51 12 8.53C12.2 8.55 12.46 8.59 12.78 8.65C12.44 9.89 12.01 11.44 11.49 13.3C10.99 15.16 10.66 16.41 10.5 17.05C9.8 19.65 9.33 21.54 9.09 22.72C8.85 23.88 8.73 24.83 8.73 25.57C8.73 26.49 8.9 27.17 9.24 27.61C9.58 28.05 10.1 28.27 10.8 28.27C11.98 28.27 12.84 27.97 13.38 27.37C13.94 26.75 14.47 25.67 14.97 24.13ZM30.1446 25.24C30.7446 25.24 31.2446 25.15 31.6446 24.97C32.0446 24.79 32.3946 24.51 32.6946 24.13L33.9846 18.43L37.8546 18.46L35.3946 29.74C34.8146 32.46 33.9246 34.38 32.7246 35.5C31.5246 36.64 29.8546 37.21 27.7146 37.21C26.4546 37.21 25.4446 36.82 24.6846 36.04C23.9246 35.26 23.5446 34.27 23.5446 33.07C23.5446 31.91 23.8846 30.94 24.5646 30.16C25.2446 29.36 26.1246 28.96 27.2046 28.96C28.2846 28.96 29.0446 29.13 29.4846 29.47C29.9246 29.79 30.1446 30.29 30.1446 30.97C30.1446 31.13 30.1246 31.31 30.0846 31.51C30.0646 31.73 30.0246 31.95 29.9646 32.17C29.6246 31.89 29.3246 31.69 29.0646 31.57C28.8046 31.45 28.5046 31.39 28.1646 31.39C27.5446 31.39 27.0346 31.61 26.6346 32.05C26.2546 32.49 26.0646 33.03 26.0646 33.67C26.0646 34.27 26.2346 34.76 26.5746 35.14C26.9146 35.52 27.3746 35.71 27.9546 35.71C28.7746 35.71 29.4046 35.42 29.8446 34.84C30.2846 34.28 30.6546 33.34 30.9546 32.02L32.1546 26.65C31.5346 26.99 30.8746 27.26 30.1746 27.46C29.4746 27.64 28.9146 27.73 28.4946 27.73C26.3746 27.73 24.7646 27.08 23.6646 25.78C22.5846 24.46 22.0446 22.55 22.0446 20.05C22.0446 18.57 22.2946 17.13 22.7946 15.73C23.3146 14.31 24.0346 13.07 24.9546 12.01C25.9346 10.87 27.0746 10 28.3746 9.4C29.6946 8.8 31.1246 8.5 32.6646 8.5C34.3446 8.5 35.6946 8.86 36.7146 9.58C37.7346 10.28 38.2446 11.26 38.2446 12.52C38.2446 13.42 38.0646 14.11 37.7046 14.59C37.3446 15.05 36.8246 15.28 36.1446 15.28C35.7246 15.28 35.3246 15.21 34.9446 15.07C34.5846 14.93 34.2946 14.74 34.0746 14.5C34.4146 14.4 34.7146 14.08 34.9746 13.54C35.2546 13 35.3946 12.5 35.3946 12.04C35.3946 11.4 35.2146 10.89 34.8546 10.51C34.4946 10.11 33.9846 9.91 33.3246 9.91C32.4646 9.91 31.5946 10.27 30.7146 10.99C29.8546 11.69 29.0846 12.67 28.4046 13.93C27.8446 14.91 27.4146 15.96 27.1146 17.08C26.8146 18.18 26.6646 19.25 26.6646 20.29C26.6646 21.83 26.9646 23.04 27.5646 23.92C28.1846 24.8 29.0446 25.24 30.1446 25.24ZM48.5684 17.38V17.59L48.8984 16H53.2184L51.0584 26.2C51.0184 26.38 50.9884 26.55 50.9684 26.71C50.9484 26.85 50.9384 27 50.9384 27.16C50.9384 27.6 51.0384 27.93 51.2384 28.15C51.4384 28.35 51.7484 28.45 52.1684 28.45C52.6884 28.45 53.1584 28.21 53.5784 27.73C53.9984 27.23 54.3384 26.53 54.5984 25.63H55.8584C55.2184 27.47 54.3884 28.86 53.3684 29.8C52.3484 30.72 51.1684 31.18 49.8284 31.18C48.9684 31.18 48.2784 30.94 47.7584 30.46C47.2584 29.98 46.9684 29.3 46.8884 28.42C46.2684 29.34 45.5784 30.03 44.8184 30.49C44.0784 30.95 43.2784 31.18 42.4184 31.18C41.1784 31.18 40.1984 30.76 39.4784 29.92C38.7784 29.08 38.4284 27.89 38.4284 26.35C38.4284 25.23 38.5984 24.06 38.9384 22.84C39.2784 21.62 39.7484 20.51 40.3484 19.51C41.0884 18.33 41.9484 17.43 42.9284 16.81C43.9084 16.17 44.9784 15.85 46.1384 15.85C46.9184 15.85 47.5184 15.99 47.9384 16.27C48.3584 16.53 48.5684 16.9 48.5684 17.38ZM48.2984 18.85C48.2984 18.55 48.1884 18.29 47.9684 18.07C47.7484 17.83 47.4484 17.71 47.0684 17.71C45.9684 17.71 44.9884 18.63 44.1284 20.47C43.2884 22.31 42.8684 24.13 42.8684 25.93C42.8684 26.71 42.9784 27.3 43.1984 27.7C43.4184 28.08 43.8084 28.27 44.3684 28.27C44.8884 28.27 45.3884 28.02 45.8684 27.52C46.3684 27.02 46.6984 26.39 46.8584 25.63L48.2984 18.85ZM85.1311 18.61C85.1311 20.27 84.4511 21.72 83.0911 22.96C81.7311 24.18 80.1111 24.84 78.2311 24.94C78.2111 25.28 78.1911 25.54 78.1711 25.72C78.1711 25.88 78.1711 26.02 78.1711 26.14C78.1711 27.06 78.3211 27.71 78.6211 28.09C78.9411 28.47 79.5111 28.66 80.3311 28.66C81.2711 28.66 82.1311 28.45 82.9111 28.03C83.7111 27.59 84.6211 26.79 85.6411 25.63H86.6611C85.5011 27.51 84.2411 28.91 82.8811 29.83C81.5211 30.73 80.0311 31.18 78.4111 31.18C76.8711 31.18 75.7011 30.78 74.9011 29.98C74.1211 29.18 73.7311 27.99 73.7311 26.41C73.7311 25.27 73.9111 24.06 74.2711 22.78C74.6311 21.5 75.1111 20.36 75.7111 19.36C76.4511 18.16 77.3311 17.26 78.3511 16.66C79.3911 16.04 80.5511 15.73 81.8311 15.73C82.9311 15.73 83.7511 15.97 84.2911 16.45C84.8511 16.91 85.1311 17.63 85.1311 18.61ZM82.0711 17.32C81.3911 17.32 80.7011 17.93 80.0011 19.15C79.3211 20.35 78.8111 21.8 78.4711 23.5C79.6311 23.42 80.6411 22.89 81.5011 21.91C82.3811 20.91 82.8211 19.79 82.8211 18.55C82.8211 18.13 82.7611 17.82 82.6411 17.62C82.5211 17.42 82.3311 17.32 82.0711 17.32Z" fill="white"/>
<path d="M69.25 19.0405C69.25 19.2394 69.171 19.4302 69.0303 19.5708C68.8897 19.7115 68.6989 19.7905 68.5 19.7905C68.3011 19.7905 68.1103 19.7115 67.9697 19.5708C67.829 19.4302 67.75 19.2394 67.75 19.0405C67.75 18.8416 67.829 18.6508 67.9697 18.5102C68.1103 18.3695 68.3011 18.2905 68.5 18.2905C68.6989 18.2905 68.8897 18.3695 69.0303 18.5102C69.171 18.6508 69.25 18.8416 69.25 19.0405V19.0405ZM67 21.2905C67.1989 21.2905 67.3897 21.2115 67.5303 21.0708C67.671 20.9302 67.75 20.7394 67.75 20.5405C67.75 20.3416 67.671 20.1508 67.5303 20.0102C67.3897 19.8695 67.1989 19.7905 67 19.7905C66.8011 19.7905 66.6103 19.8695 66.4697 20.0102C66.329 20.1508 66.25 20.3416 66.25 20.5405C66.25 20.7394 66.329 20.9302 66.4697 21.0708C66.6103 21.2115 66.8011 21.2905 67 21.2905ZM70.75 20.5405C70.75 20.7394 70.671 20.9302 70.5303 21.0708C70.3897 21.2115 70.1989 21.2905 70 21.2905C69.8011 21.2905 69.6103 21.2115 69.4697 21.0708C69.329 20.9302 69.25 20.7394 69.25 20.5405C69.25 20.3416 69.329 20.1508 69.4697 20.0102C69.6103 19.8695 69.8011 19.7905 70 19.7905C70.1989 19.7905 70.3897 19.8695 70.5303 20.0102C70.671 20.1508 70.75 20.3416 70.75 20.5405V20.5405ZM68.5 22.7905C68.6989 22.7905 68.8897 22.7115 69.0303 22.5708C69.171 22.4302 69.25 22.2394 69.25 22.0405C69.25 21.8416 69.171 21.6508 69.0303 21.5102C68.8897 21.3695 68.6989 21.2905 68.5 21.2905C68.3011 21.2905 68.1103 21.3695 67.9697 21.5102C67.829 21.6508 67.75 21.8416 67.75 22.0405C67.75 22.2394 67.829 22.4302 67.9697 22.5708C68.1103 22.7115 68.3011 22.7905 68.5 22.7905ZM58.75 18.2905H60.25V19.7905H61.75V21.2905H60.25V22.7905H58.75V21.2905H57.25V19.7905H58.75V18.2905Z" fill="white"/>
<path d="M56.5765 14.89C56.5509 14.7948 56.5443 14.6954 56.5571 14.5976C56.57 14.4998 56.602 14.4055 56.6513 14.3201C56.7006 14.2347 56.7663 14.1599 56.8446 14.0999C56.9229 14.0399 57.0122 13.9959 57.1075 13.9705L60.0055 13.1935C60.1051 13.1669 60.2092 13.1612 60.3111 13.1767C60.413 13.1921 60.5107 13.2285 60.598 13.2834C60.6852 13.3383 60.7603 13.4106 60.8183 13.4958C60.8764 13.5809 60.9163 13.6772 60.9355 13.7785C61.918 13.66 62.9605 13.603 64 13.603C65.08 13.603 66.1645 13.6645 67.18 13.792C67.1975 13.6892 67.2363 13.5911 67.2939 13.5041C67.3515 13.4171 67.4266 13.3431 67.5144 13.2868C67.6022 13.2305 67.7008 13.1931 67.8039 13.177C67.9069 13.1609 68.0122 13.1666 68.113 13.1935L71.011 13.9705C71.1216 14.0001 71.2239 14.0546 71.3102 14.1299C71.3964 14.2051 71.4643 14.2992 71.5086 14.4047C71.5529 14.5103 71.5725 14.6246 71.5658 14.7388C71.5591 14.8531 71.5263 14.9643 71.47 15.064C71.68 15.199 71.869 15.349 72.0295 15.5095C72.6415 16.1215 73.1995 17.0845 73.672 18.1675C74.152 19.267 74.5705 20.554 74.8795 21.8665C75.1885 23.179 75.3895 24.5365 75.4255 25.7755C75.4615 26.9995 75.337 28.1785 74.9335 29.0905C74.7495 29.4999 74.4408 29.8408 74.0516 30.0644C73.6623 30.288 73.2124 30.3828 72.766 30.3355C71.812 30.235 71.0935 29.7445 70.4965 29.176C70.129 28.828 69.7525 28.387 69.388 27.964C69.199 27.742 69.013 27.526 68.836 27.3295C67.744 26.1235 66.4405 25.039 64 25.039C61.5595 25.039 60.256 26.1235 59.164 27.3295C58.9855 27.526 58.801 27.742 58.612 27.964C58.2475 28.387 57.871 28.8265 57.5035 29.176C56.9065 29.746 56.188 30.235 55.234 30.3355C54.7876 30.3828 54.3377 30.288 53.9484 30.0644C53.5592 29.8408 53.2505 29.4999 53.0665 29.0905C52.6615 28.1785 52.5385 26.998 52.573 25.7755C52.609 24.5365 52.813 23.1805 53.1205 21.8665C53.4295 20.554 53.8495 19.267 54.328 18.1675C54.8005 17.0845 55.3585 16.1215 55.969 15.5095C56.1651 15.3172 56.3831 15.1485 56.6185 15.007C56.6012 14.9687 56.5872 14.9291 56.5765 14.8885V14.89ZM59.6305 15.508C58.315 15.7855 57.427 16.1725 57.031 16.57C56.617 16.984 56.1505 17.7445 55.7035 18.7675C55.2293 19.8799 54.8538 21.0318 54.5815 22.21C54.2938 23.3934 54.1235 24.6022 54.073 25.819C54.04 26.9515 54.166 27.871 54.4375 28.483C54.4931 28.6022 54.5846 28.701 54.6992 28.7656C54.8138 28.8301 54.9457 28.8572 55.0765 28.843C55.567 28.792 55.9915 28.5445 56.47 28.09C56.788 27.787 57.07 27.4555 57.3925 27.079C57.592 26.845 57.8065 26.5945 58.0525 26.323C59.2915 24.9535 60.967 23.5405 64 23.5405C67.033 23.5405 68.7085 24.9535 69.9475 26.323C70.1935 26.5945 70.408 26.845 70.6075 27.079C70.9285 27.4555 71.212 27.787 71.53 28.09C72.007 28.5445 72.4315 28.792 72.9235 28.8445C73.0544 28.8586 73.1865 28.8313 73.3011 28.7664C73.4157 28.7016 73.5071 28.6025 73.5625 28.483C73.8325 27.871 73.96 26.953 73.927 25.819C73.8765 24.6022 73.7062 23.3934 73.4185 22.21C73.1461 21.0318 72.7707 19.8799 72.2965 18.7675C71.8495 17.7445 71.3815 16.9825 70.969 16.57C70.573 16.1725 69.685 15.7855 68.3695 15.508C67.0945 15.2395 65.554 15.103 64 15.103C62.446 15.103 60.9055 15.2395 59.6305 15.508V15.508Z" fill="#70FF00"/>
</svg>
